<mxfile host="app.diagrams.net" modified="2021-06-03T11:58:38.066Z" agent="5.0 (Windows NT 10.0; Win64; x64) AppleWebKit/537.36 (KHTML, like Gecko) Chrome/91.0.4472.77 Safari/537.36" etag="s-3KPU93iynUvesYtZRy" version="14.7.3" type="github">
  <diagram name="Page-1" id="b520641d-4fe3-3701-9064-5fc419738815">
    <mxGraphModel dx="1114" dy="1634" grid="1" gridSize="10" guides="1" tooltips="1" connect="1" arrows="1" fold="1" page="1" pageScale="1" pageWidth="5000" pageHeight="1000" background="none" math="0" shadow="0">
      <root>
        <mxCell id="0" />
        <mxCell id="1" parent="0" />
        <mxCell id="2debaab0fafb2da2-10" value="URL&lt;br&gt;&lt;font style=&quot;background-color: rgb(255 , 255 , 255)&quot;&gt;(&lt;span style=&quot;font-family: &amp;#34;jetbrains mono&amp;#34; , monospace ; font-size: 9.8pt&quot;&gt;http://localhost:8666/block/)&lt;/span&gt;&lt;/font&gt;" style="html=1;rounded=0;shadow=0;comic=0;labelBackgroundColor=none;strokeWidth=2;fontFamily=Verdana;fontSize=12;align=center;shape=mxgraph.ios7ui.horLines;" parent="1" vertex="1">
          <mxGeometry x="20" y="24" width="210" height="50" as="geometry" />
        </mxCell>
        <mxCell id="21ea969265ad0168-6" value="class myHandler&lt;br&gt;(BaseHTTPRequestHandler)" style="swimlane;html=1;fontStyle=0;childLayout=stackLayout;horizontal=1;startSize=40;fillColor=#e0e0e0;horizontalStack=0;resizeParent=1;resizeLast=0;collapsible=1;marginBottom=0;swimlaneFillColor=#ffffff;align=center;rounded=1;shadow=0;comic=0;labelBackgroundColor=none;strokeWidth=1;fontFamily=Verdana;fontSize=12" parent="1" vertex="1">
          <mxGeometry x="33.75" y="130" width="182.5" height="120" as="geometry" />
        </mxCell>
        <mxCell id="21ea969265ad0168-7" value="def do_GET&lt;br&gt;(handle &#39;get&#39; request)" style="text;html=1;strokeColor=none;fillColor=none;spacingLeft=4;spacingRight=4;whiteSpace=wrap;overflow=hidden;rotatable=0;points=[[0,0.5],[1,0.5]];portConstraint=eastwest;" parent="21ea969265ad0168-6" vertex="1">
          <mxGeometry y="40" width="182.5" height="40" as="geometry" />
        </mxCell>
        <mxCell id="21ea969265ad0168-8" value="def do_POST&lt;br&gt;(handle &#39;post&#39; request)" style="text;html=1;strokeColor=none;fillColor=none;spacingLeft=4;spacingRight=4;whiteSpace=wrap;overflow=hidden;rotatable=0;points=[[0,0.5],[1,0.5]];portConstraint=eastwest;" parent="21ea969265ad0168-6" vertex="1">
          <mxGeometry y="80" width="182.5" height="34" as="geometry" />
        </mxCell>
        <mxCell id="21ea969265ad0168-14" value="do_GET (func)" style="swimlane;html=1;fontStyle=0;childLayout=stackLayout;horizontal=1;startSize=26;fillColor=#e0e0e0;horizontalStack=0;resizeParent=1;resizeLast=0;collapsible=1;marginBottom=0;swimlaneFillColor=#ffffff;align=center;rounded=1;shadow=0;comic=0;labelBackgroundColor=none;strokeWidth=1;fontFamily=Verdana;fontSize=12" parent="1" vertex="1">
          <mxGeometry x="310" y="137.5" width="160" height="105" as="geometry" />
        </mxCell>
        <mxCell id="21ea969265ad0168-15" value="search" style="text;html=1;fillColor=none;spacingLeft=4;spacingRight=4;whiteSpace=wrap;overflow=hidden;rotatable=0;points=[[0,0.5],[1,0.5]];portConstraint=eastwest;strokeWidth=1;shadow=0;dashed=1;align=center;" parent="21ea969265ad0168-14" vertex="1">
          <mxGeometry y="26" width="160" height="26" as="geometry" />
        </mxCell>
        <mxCell id="21ea969265ad0168-16" value="generate block" style="text;html=1;fillColor=none;spacingLeft=4;spacingRight=4;whiteSpace=wrap;overflow=hidden;rotatable=0;points=[[0,0.5],[1,0.5]];portConstraint=eastwest;strokeColor=#000000;dashed=1;align=center;" parent="21ea969265ad0168-14" vertex="1">
          <mxGeometry y="52" width="160" height="26" as="geometry" />
        </mxCell>
        <mxCell id="21ea969265ad0168-17" value="node" style="text;html=1;fillColor=none;spacingLeft=4;spacingRight=4;whiteSpace=wrap;overflow=hidden;rotatable=0;points=[[0,0.5],[1,0.5]];portConstraint=eastwest;dashed=1;align=center;" parent="21ea969265ad0168-14" vertex="1">
          <mxGeometry y="78" width="160" height="26" as="geometry" />
        </mxCell>
        <mxCell id="21ea969265ad0168-26" value="do_POST (func)" style="swimlane;html=1;fontStyle=0;childLayout=stackLayout;horizontal=1;startSize=26;fillColor=#e0e0e0;horizontalStack=0;resizeParent=1;resizeLast=0;collapsible=1;marginBottom=0;swimlaneFillColor=#ffffff;align=center;rounded=1;shadow=0;comic=0;labelBackgroundColor=none;strokeWidth=1;fontFamily=Verdana;fontSize=12" parent="1" vertex="1">
          <mxGeometry x="310" y="580" width="160" height="104" as="geometry" />
        </mxCell>
        <mxCell id="21ea969265ad0168-27" value="validate" style="text;html=1;strokeColor=none;fillColor=none;spacingLeft=4;spacingRight=4;whiteSpace=wrap;overflow=hidden;rotatable=0;points=[[0,0.5],[1,0.5]];portConstraint=eastwest;align=center;" parent="21ea969265ad0168-26" vertex="1">
          <mxGeometry y="26" width="160" height="26" as="geometry" />
        </mxCell>
        <mxCell id="21ea969265ad0168-28" value="add transaction" style="text;html=1;fillColor=none;spacingLeft=4;spacingRight=4;whiteSpace=wrap;overflow=hidden;rotatable=0;points=[[0,0.5],[1,0.5]];portConstraint=eastwest;strokeColor=#000000;dashed=1;align=center;" parent="21ea969265ad0168-26" vertex="1">
          <mxGeometry y="52" width="160" height="26" as="geometry" />
        </mxCell>
        <mxCell id="21ea969265ad0168-29" value="node" style="text;html=1;strokeColor=none;fillColor=none;spacingLeft=4;spacingRight=4;whiteSpace=wrap;overflow=hidden;rotatable=0;points=[[0,0.5],[1,0.5]];portConstraint=eastwest;align=center;" parent="21ea969265ad0168-26" vertex="1">
          <mxGeometry y="78" width="160" height="26" as="geometry" />
        </mxCell>
        <mxCell id="21ea969265ad0168-30" value="Object" style="html=1;rounded=0;shadow=0;comic=0;labelBackgroundColor=none;strokeWidth=2;fontFamily=Verdana;fontSize=12;align=center;shape=mxgraph.ios7ui.horLines;" parent="1" vertex="1">
          <mxGeometry x="120" y="630" width="135" height="50" as="geometry" />
        </mxCell>
        <mxCell id="GV4vG9G-vkSTJesM0rRb-1" value="" style="endArrow=classic;html=1;entryX=0.5;entryY=0;entryDx=0;entryDy=0;" parent="1" target="21ea969265ad0168-6" edge="1">
          <mxGeometry width="50" height="50" relative="1" as="geometry">
            <mxPoint x="125" y="74" as="sourcePoint" />
            <mxPoint x="90" y="260" as="targetPoint" />
            <Array as="points" />
          </mxGeometry>
        </mxCell>
        <mxCell id="GV4vG9G-vkSTJesM0rRb-3" value="" style="endArrow=classic;html=1;exitX=0.5;exitY=1;exitDx=0;exitDy=0;entryX=-0.006;entryY=0.135;entryDx=0;entryDy=0;entryPerimeter=0;" parent="1" source="21ea969265ad0168-6" target="21ea969265ad0168-26" edge="1">
          <mxGeometry relative="1" as="geometry">
            <mxPoint x="190" y="310" as="sourcePoint" />
            <mxPoint x="560" y="430" as="targetPoint" />
            <Array as="points">
              <mxPoint x="125" y="594" />
            </Array>
          </mxGeometry>
        </mxCell>
        <mxCell id="GV4vG9G-vkSTJesM0rRb-4" value="&#39;POST&#39;" style="edgeLabel;resizable=0;html=1;align=center;verticalAlign=middle;" parent="GV4vG9G-vkSTJesM0rRb-3" connectable="0" vertex="1">
          <mxGeometry relative="1" as="geometry" />
        </mxCell>
        <mxCell id="GV4vG9G-vkSTJesM0rRb-5" value="" style="endArrow=classic;html=1;exitX=1.006;exitY=0.191;exitDx=0;exitDy=0;exitPerimeter=0;entryX=-0.019;entryY=0.148;entryDx=0;entryDy=0;entryPerimeter=0;" parent="1" source="21ea969265ad0168-6" target="21ea969265ad0168-14" edge="1">
          <mxGeometry relative="1" as="geometry">
            <mxPoint x="216.25" y="200" as="sourcePoint" />
            <mxPoint x="300" y="153" as="targetPoint" />
            <Array as="points" />
          </mxGeometry>
        </mxCell>
        <mxCell id="GV4vG9G-vkSTJesM0rRb-6" value="&#39;GET&#39;" style="edgeLabel;resizable=0;html=1;align=center;verticalAlign=middle;" parent="GV4vG9G-vkSTJesM0rRb-5" connectable="0" vertex="1">
          <mxGeometry relative="1" as="geometry" />
        </mxCell>
        <mxCell id="GV4vG9G-vkSTJesM0rRb-8" value="return data.append(block.__dict__)" style="rounded=1;whiteSpace=wrap;html=1;shadow=0;strokeColor=#000000;strokeWidth=1;align=center;" parent="1" vertex="1">
          <mxGeometry x="910" y="90" width="210" height="30" as="geometry" />
        </mxCell>
        <mxCell id="GV4vG9G-vkSTJesM0rRb-9" value="" style="endArrow=classic;html=1;exitX=1;exitY=0.5;exitDx=0;exitDy=0;entryX=-0.003;entryY=0.42;entryDx=0;entryDy=0;entryPerimeter=0;" parent="1" source="21ea969265ad0168-15" target="GV4vG9G-vkSTJesM0rRb-14" edge="1">
          <mxGeometry relative="1" as="geometry">
            <mxPoint x="420" y="290" as="sourcePoint" />
            <mxPoint x="520" y="290" as="targetPoint" />
            <Array as="points">
              <mxPoint x="530" y="127" />
            </Array>
          </mxGeometry>
        </mxCell>
        <mxCell id="GV4vG9G-vkSTJesM0rRb-10" value="/block/getBlockData" style="edgeLabel;resizable=0;html=1;align=center;verticalAlign=middle;" parent="GV4vG9G-vkSTJesM0rRb-9" connectable="0" vertex="1">
          <mxGeometry relative="1" as="geometry" />
        </mxCell>
        <mxCell id="GV4vG9G-vkSTJesM0rRb-12" value="" style="endArrow=classic;html=1;exitX=1;exitY=0.5;exitDx=0;exitDy=0;entryX=0;entryY=0.5;entryDx=0;entryDy=0;" parent="1" source="21ea969265ad0168-16" edge="1">
          <mxGeometry relative="1" as="geometry">
            <mxPoint x="580" y="290" as="sourcePoint" />
            <mxPoint x="600" y="155" as="targetPoint" />
          </mxGeometry>
        </mxCell>
        <mxCell id="GV4vG9G-vkSTJesM0rRb-13" value="/block/generateBlock" style="edgeLabel;resizable=0;html=1;align=center;verticalAlign=middle;" parent="GV4vG9G-vkSTJesM0rRb-12" connectable="0" vertex="1">
          <mxGeometry relative="1" as="geometry" />
        </mxCell>
        <mxCell id="GV4vG9G-vkSTJesM0rRb-14" value="read &#39;block&#39;" style="rounded=1;whiteSpace=wrap;html=1;shadow=0;strokeColor=#000000;strokeWidth=1;align=center;" parent="1" vertex="1">
          <mxGeometry x="600" y="90" width="120" height="90" as="geometry" />
        </mxCell>
        <mxCell id="GV4vG9G-vkSTJesM0rRb-15" value="" style="endArrow=classic;html=1;entryX=0;entryY=0.5;entryDx=0;entryDy=0;exitX=1;exitY=0.167;exitDx=0;exitDy=0;exitPerimeter=0;" parent="1" source="GV4vG9G-vkSTJesM0rRb-14" target="GV4vG9G-vkSTJesM0rRb-8" edge="1">
          <mxGeometry relative="1" as="geometry">
            <mxPoint x="724" y="105" as="sourcePoint" />
            <mxPoint x="820" y="88.66" as="targetPoint" />
          </mxGeometry>
        </mxCell>
        <mxCell id="GV4vG9G-vkSTJesM0rRb-16" value="load block data from &#39;block&#39;" style="edgeLabel;resizable=0;html=1;align=center;verticalAlign=middle;" parent="GV4vG9G-vkSTJesM0rRb-15" connectable="0" vertex="1">
          <mxGeometry relative="1" as="geometry" />
        </mxCell>
        <mxCell id="9pu0YHdIuSZk-ArdZA3d-1" value="" style="endArrow=classic;html=1;exitX=1;exitY=0.5;exitDx=0;exitDy=0;" parent="1" source="21ea969265ad0168-17" edge="1">
          <mxGeometry relative="1" as="geometry">
            <mxPoint x="590" y="580" as="sourcePoint" />
            <mxPoint x="600" y="229" as="targetPoint" />
          </mxGeometry>
        </mxCell>
        <mxCell id="9pu0YHdIuSZk-ArdZA3d-2" value="/node/addNode&lt;br&gt;:nodeNumber" style="edgeLabel;resizable=0;html=1;align=center;verticalAlign=middle;" parent="9pu0YHdIuSZk-ArdZA3d-1" connectable="0" vertex="1">
          <mxGeometry relative="1" as="geometry" />
        </mxCell>
        <mxCell id="9pu0YHdIuSZk-ArdZA3d-6" value="" style="endArrow=classic;html=1;exitX=1;exitY=0.5;exitDx=0;exitDy=0;entryX=0;entryY=0.6;entryDx=0;entryDy=0;entryPerimeter=0;" parent="1" source="21ea969265ad0168-17" target="9pu0YHdIuSZk-ArdZA3d-17" edge="1">
          <mxGeometry relative="1" as="geometry">
            <mxPoint x="270" y="430" as="sourcePoint" />
            <mxPoint x="600" y="270" as="targetPoint" />
            <Array as="points">
              <mxPoint x="470" y="270" />
            </Array>
          </mxGeometry>
        </mxCell>
        <mxCell id="9pu0YHdIuSZk-ArdZA3d-7" value="/node/getNode" style="edgeLabel;resizable=0;html=1;align=center;verticalAlign=middle;" parent="9pu0YHdIuSZk-ArdZA3d-6" connectable="0" vertex="1">
          <mxGeometry relative="1" as="geometry" />
        </mxCell>
        <mxCell id="9pu0YHdIuSZk-ArdZA3d-8" value="check &#39;client address&#39;&lt;br&gt;and &#39;queryStr&#39;" style="rounded=1;whiteSpace=wrap;html=1;" parent="1" vertex="1">
          <mxGeometry x="600" y="210" width="120" height="40" as="geometry" />
        </mxCell>
        <mxCell id="9pu0YHdIuSZk-ArdZA3d-9" value="" style="endArrow=classic;html=1;entryX=0;entryY=0.5;entryDx=0;entryDy=0;" parent="1" target="9pu0YHdIuSZk-ArdZA3d-16" edge="1">
          <mxGeometry relative="1" as="geometry">
            <mxPoint x="720" y="220" as="sourcePoint" />
            <mxPoint x="910" y="220" as="targetPoint" />
            <Array as="points">
              <mxPoint x="760" y="195" />
            </Array>
          </mxGeometry>
        </mxCell>
        <mxCell id="9pu0YHdIuSZk-ArdZA3d-10" value="if (queryStr == self.address)" style="edgeLabel;resizable=0;html=1;align=center;verticalAlign=middle;" parent="9pu0YHdIuSZk-ArdZA3d-9" connectable="0" vertex="1">
          <mxGeometry relative="1" as="geometry" />
        </mxCell>
        <mxCell id="9pu0YHdIuSZk-ArdZA3d-11" value="" style="endArrow=classic;html=1;" parent="1" edge="1">
          <mxGeometry relative="1" as="geometry">
            <mxPoint x="720" y="240" as="sourcePoint" />
            <mxPoint x="910" y="240" as="targetPoint" />
          </mxGeometry>
        </mxCell>
        <mxCell id="9pu0YHdIuSZk-ArdZA3d-12" value="if (queryStr != self.address)" style="edgeLabel;resizable=0;html=1;align=center;verticalAlign=middle;" parent="9pu0YHdIuSZk-ArdZA3d-11" connectable="0" vertex="1">
          <mxGeometry relative="1" as="geometry" />
        </mxCell>
        <mxCell id="9pu0YHdIuSZk-ArdZA3d-16" value="return error" style="rounded=1;whiteSpace=wrap;html=1;fillColor=#dae8fc;strokeColor=#6c8ebf;" parent="1" vertex="1">
          <mxGeometry x="910" y="185" width="210" height="20" as="geometry" />
        </mxCell>
        <mxCell id="9pu0YHdIuSZk-ArdZA3d-17" value="def readNodes(g_nodelstFileName)" style="rounded=1;whiteSpace=wrap;html=1;" parent="1" vertex="1">
          <mxGeometry x="910" y="230" width="210" height="70" as="geometry" />
        </mxCell>
        <mxCell id="PHjYOECtbzAeJaCVC0Ml-1" value="" style="endArrow=classic;html=1;exitX=1.025;exitY=0.633;exitDx=0;exitDy=0;exitPerimeter=0;" edge="1" parent="1" source="GV4vG9G-vkSTJesM0rRb-14">
          <mxGeometry relative="1" as="geometry">
            <mxPoint x="800" y="580" as="sourcePoint" />
            <mxPoint x="910" y="147" as="targetPoint" />
          </mxGeometry>
        </mxCell>
        <mxCell id="PHjYOECtbzAeJaCVC0Ml-2" value="Label" style="edgeLabel;resizable=0;html=1;align=center;verticalAlign=middle;" connectable="0" vertex="1" parent="PHjYOECtbzAeJaCVC0Ml-1">
          <mxGeometry relative="1" as="geometry" />
        </mxCell>
        <mxCell id="PHjYOECtbzAeJaCVC0Ml-3" value="return data.append(&quot;mining is..&quot;) message" style="rounded=1;whiteSpace=wrap;html=1;shadow=0;strokeColor=#000000;strokeWidth=1;align=center;" vertex="1" parent="1">
          <mxGeometry x="910" y="135" width="210" height="30" as="geometry" />
        </mxCell>
        <mxCell id="PHjYOECtbzAeJaCVC0Ml-7" value="" style="endArrow=classic;html=1;" edge="1" parent="1">
          <mxGeometry relative="1" as="geometry">
            <mxPoint x="1120" y="137.5" as="sourcePoint" />
            <mxPoint x="1230" y="90" as="targetPoint" />
          </mxGeometry>
        </mxCell>
        <mxCell id="PHjYOECtbzAeJaCVC0Ml-8" value="if (block == None)" style="edgeLabel;resizable=0;html=1;align=center;verticalAlign=middle;" connectable="0" vertex="1" parent="PHjYOECtbzAeJaCVC0Ml-7">
          <mxGeometry relative="1" as="geometry" />
        </mxCell>
        <mxCell id="PHjYOECtbzAeJaCVC0Ml-9" value="" style="endArrow=classic;html=1;exitX=1.007;exitY=0.927;exitDx=0;exitDy=0;exitPerimeter=0;" edge="1" parent="1" source="PHjYOECtbzAeJaCVC0Ml-3">
          <mxGeometry relative="1" as="geometry">
            <mxPoint x="1180" y="220" as="sourcePoint" />
            <mxPoint x="1230" y="210" as="targetPoint" />
          </mxGeometry>
        </mxCell>
        <mxCell id="PHjYOECtbzAeJaCVC0Ml-10" value="if (block != None)" style="edgeLabel;resizable=0;html=1;align=center;verticalAlign=middle;" connectable="0" vertex="1" parent="PHjYOECtbzAeJaCVC0Ml-9">
          <mxGeometry relative="1" as="geometry" />
        </mxCell>
        <mxCell id="PHjYOECtbzAeJaCVC0Ml-45" value="" style="edgeStyle=orthogonalEdgeStyle;rounded=0;orthogonalLoop=1;jettySize=auto;html=1;" edge="1" parent="1" source="PHjYOECtbzAeJaCVC0Ml-11">
          <mxGeometry relative="1" as="geometry">
            <mxPoint x="1490" y="87" as="targetPoint" />
          </mxGeometry>
        </mxCell>
        <mxCell id="PHjYOECtbzAeJaCVC0Ml-11" value="def generateGenesisBlock" style="rounded=1;whiteSpace=wrap;html=1;" vertex="1" parent="1">
          <mxGeometry x="1230" y="74" width="160" height="26" as="geometry" />
        </mxCell>
        <mxCell id="PHjYOECtbzAeJaCVC0Ml-12" value="def generateNextBlock" style="rounded=1;whiteSpace=wrap;html=1;" vertex="1" parent="1">
          <mxGeometry x="1230" y="200" width="160" height="20" as="geometry" />
        </mxCell>
        <mxCell id="PHjYOECtbzAeJaCVC0Ml-38" value="colorTable" style="swimlane;html=1;fontStyle=0;childLayout=stackLayout;horizontal=1;startSize=26;fillColor=#fff2cc;horizontalStack=0;resizeParent=1;resizeLast=0;collapsible=1;marginBottom=0;swimlaneFillColor=#ffffff;align=center;rounded=1;shadow=0;comic=0;labelBackgroundColor=none;strokeWidth=1;fontFamily=Verdana;fontSize=12;strokeColor=#d6b656;" vertex="1" parent="1">
          <mxGeometry x="190" y="290" width="160" height="105" as="geometry" />
        </mxCell>
        <mxCell id="PHjYOECtbzAeJaCVC0Ml-39" value="return error" style="text;html=1;fillColor=#dae8fc;spacingLeft=4;spacingRight=4;whiteSpace=wrap;overflow=hidden;rotatable=0;points=[[0,0.5],[1,0.5]];portConstraint=eastwest;strokeWidth=1;shadow=0;dashed=1;align=center;strokeColor=#6c8ebf;" vertex="1" parent="PHjYOECtbzAeJaCVC0Ml-38">
          <mxGeometry y="26" width="160" height="26" as="geometry" />
        </mxCell>
        <mxCell id="PHjYOECtbzAeJaCVC0Ml-40" value="return data" style="text;html=1;fillColor=#f8cecc;spacingLeft=4;spacingRight=4;whiteSpace=wrap;overflow=hidden;rotatable=0;points=[[0,0.5],[1,0.5]];portConstraint=eastwest;strokeColor=#b85450;dashed=1;align=center;" vertex="1" parent="PHjYOECtbzAeJaCVC0Ml-38">
          <mxGeometry y="52" width="160" height="26" as="geometry" />
        </mxCell>
        <mxCell id="PHjYOECtbzAeJaCVC0Ml-41" value="def ends" style="text;html=1;fillColor=#d5e8d4;spacingLeft=4;spacingRight=4;whiteSpace=wrap;overflow=hidden;rotatable=0;points=[[0,0.5],[1,0.5]];portConstraint=eastwest;dashed=1;align=center;strokeColor=#82b366;" vertex="1" parent="PHjYOECtbzAeJaCVC0Ml-38">
          <mxGeometry y="78" width="160" height="26" as="geometry" />
        </mxCell>
        <mxCell id="PHjYOECtbzAeJaCVC0Ml-53" value="" style="edgeStyle=orthogonalEdgeStyle;rounded=0;orthogonalLoop=1;jettySize=auto;html=1;" edge="1" parent="1" source="PHjYOECtbzAeJaCVC0Ml-47" target="PHjYOECtbzAeJaCVC0Ml-52">
          <mxGeometry relative="1" as="geometry" />
        </mxCell>
        <mxCell id="PHjYOECtbzAeJaCVC0Ml-47" value="def circulateHash" style="rounded=1;whiteSpace=wrap;html=1;" vertex="1" parent="1">
          <mxGeometry x="1710" y="139" width="140" height="21" as="geometry" />
        </mxCell>
        <mxCell id="PHjYOECtbzAeJaCVC0Ml-48" value="return Block (0, &#39;0&#39;, timestamp, &quot;Genesis Block&quot;, tempHesh, 0)" style="rounded=1;whiteSpace=wrap;html=1;fillColor=#d5e8d4;strokeColor=#82b366;" vertex="1" parent="1">
          <mxGeometry x="1490" y="74" width="350" height="26" as="geometry" />
        </mxCell>
        <mxCell id="PHjYOECtbzAeJaCVC0Ml-51" value="" style="endArrow=classic;html=1;exitX=0.838;exitY=1.045;exitDx=0;exitDy=0;exitPerimeter=0;" edge="1" parent="1" source="PHjYOECtbzAeJaCVC0Ml-48">
          <mxGeometry width="50" height="50" relative="1" as="geometry">
            <mxPoint x="1630" y="240" as="sourcePoint" />
            <mxPoint x="1783" y="140" as="targetPoint" />
          </mxGeometry>
        </mxCell>
        <mxCell id="PHjYOECtbzAeJaCVC0Ml-52" value="return str(sha.hexdigest())" style="whiteSpace=wrap;html=1;rounded=1;fillColor=#d5e8d4;strokeColor=#82b366;" vertex="1" parent="1">
          <mxGeometry x="1940" y="136.62" width="160" height="25.75" as="geometry" />
        </mxCell>
        <mxCell id="PHjYOECtbzAeJaCVC0Ml-54" value="" style="curved=1;endArrow=classic;html=1;entryX=0.836;entryY=0.051;entryDx=0;entryDy=0;entryPerimeter=0;exitX=0.5;exitY=0;exitDx=0;exitDy=0;" edge="1" parent="1" source="PHjYOECtbzAeJaCVC0Ml-52" target="PHjYOECtbzAeJaCVC0Ml-48">
          <mxGeometry width="50" height="50" relative="1" as="geometry">
            <mxPoint x="1940" y="240" as="sourcePoint" />
            <mxPoint x="1990" y="190" as="targetPoint" />
            <Array as="points">
              <mxPoint x="2000" y="60" />
              <mxPoint x="1870" y="20" />
            </Array>
          </mxGeometry>
        </mxCell>
        <mxCell id="PHjYOECtbzAeJaCVC0Ml-55" value="value = str(index) + str(previousHash) + str(timestamp) + str(data) + str(proof)&lt;br&gt;tempHash = hashlib.sha256(value)" style="whiteSpace=wrap;html=1;rounded=1;arcSize=50;align=center;verticalAlign=middle;strokeWidth=1;autosize=1;spacing=4;treeFolding=1;treeMoving=1;newEdgeStyle={&quot;edgeStyle&quot;:&quot;entityRelationEdgeStyle&quot;,&quot;startArrow&quot;:&quot;none&quot;,&quot;endArrow&quot;:&quot;none&quot;,&quot;segment&quot;:10,&quot;curved&quot;:1};fillColor=#f5f5f5;strokeColor=#666666;fontColor=#333333;" vertex="1" parent="1">
          <mxGeometry x="1830" y="180" width="482" height="40" as="geometry" />
        </mxCell>
        <mxCell id="PHjYOECtbzAeJaCVC0Ml-56" value="" style="edgeStyle=entityRelationEdgeStyle;startArrow=none;endArrow=none;segment=10;curved=1;exitX=0.5;exitY=1;exitDx=0;exitDy=0;" edge="1" target="PHjYOECtbzAeJaCVC0Ml-55" parent="1">
          <mxGeometry relative="1" as="geometry">
            <mxPoint x="1810" y="160" as="sourcePoint" />
          </mxGeometry>
        </mxCell>
        <mxCell id="PHjYOECtbzAeJaCVC0Ml-57" value="return Block (nextIndex, previousBlock.currentHash, nextTimestamp, blockData, nextHesh, nextHash.proof)" style="rounded=1;whiteSpace=wrap;html=1;fillColor=#d5e8d4;strokeColor=#82b366;" vertex="1" parent="1">
          <mxGeometry x="1490" y="250" width="590" height="26" as="geometry" />
        </mxCell>
        <mxCell id="PHjYOECtbzAeJaCVC0Ml-58" value="" style="edgeStyle=orthogonalEdgeStyle;rounded=0;orthogonalLoop=1;jettySize=auto;html=1;exitX=1;exitY=0.5;exitDx=0;exitDy=0;entryX=0;entryY=0.5;entryDx=0;entryDy=0;" edge="1" parent="1" source="PHjYOECtbzAeJaCVC0Ml-12" target="PHjYOECtbzAeJaCVC0Ml-57">
          <mxGeometry relative="1" as="geometry">
            <mxPoint x="1400" y="97" as="sourcePoint" />
            <mxPoint x="1500" y="97" as="targetPoint" />
            <Array as="points">
              <mxPoint x="1440" y="210" />
              <mxPoint x="1440" y="263" />
            </Array>
          </mxGeometry>
        </mxCell>
        <mxCell id="PHjYOECtbzAeJaCVC0Ml-59" value="" style="endArrow=classic;html=1;exitX=0.838;exitY=1.045;exitDx=0;exitDy=0;exitPerimeter=0;entryX=0.714;entryY=0.056;entryDx=0;entryDy=0;entryPerimeter=0;" edge="1" parent="1" target="PHjYOECtbzAeJaCVC0Ml-60">
          <mxGeometry width="50" height="50" relative="1" as="geometry">
            <mxPoint x="1590.3000000000002" y="276.0000000000001" as="sourcePoint" />
            <mxPoint x="1590" y="314.83000000000004" as="targetPoint" />
          </mxGeometry>
        </mxCell>
        <mxCell id="PHjYOECtbzAeJaCVC0Ml-60" value="def getLatestBlock" style="rounded=1;whiteSpace=wrap;html=1;" vertex="1" parent="1">
          <mxGeometry x="1490" y="320" width="140" height="21" as="geometry" />
        </mxCell>
        <mxCell id="PHjYOECtbzAeJaCVC0Ml-61" value="" style="edgeStyle=orthogonalEdgeStyle;rounded=0;orthogonalLoop=1;jettySize=auto;html=1;exitX=0.5;exitY=1;exitDx=0;exitDy=0;" edge="1" parent="1" target="PHjYOECtbzAeJaCVC0Ml-62" source="PHjYOECtbzAeJaCVC0Ml-60">
          <mxGeometry relative="1" as="geometry">
            <mxPoint x="1400" y="392.87999999999977" as="sourcePoint" />
          </mxGeometry>
        </mxCell>
        <mxCell id="PHjYOECtbzAeJaCVC0Ml-62" value="return blockchain[len(blockchain)-1]" style="whiteSpace=wrap;html=1;rounded=1;fillColor=#d5e8d4;strokeColor=#82b366;" vertex="1" parent="1">
          <mxGeometry x="1455" y="380" width="210" height="25.75" as="geometry" />
        </mxCell>
        <mxCell id="PHjYOECtbzAeJaCVC0Ml-63" value="" style="endArrow=classic;html=1;entryX=0.297;entryY=1.006;entryDx=0;entryDy=0;entryPerimeter=0;exitX=1;exitY=0.5;exitDx=0;exitDy=0;" edge="1" parent="1" source="PHjYOECtbzAeJaCVC0Ml-62" target="PHjYOECtbzAeJaCVC0Ml-57">
          <mxGeometry relative="1" as="geometry">
            <mxPoint x="1660" y="377" as="sourcePoint" />
            <mxPoint x="1700" y="180" as="targetPoint" />
            <Array as="points" />
          </mxGeometry>
        </mxCell>
        <mxCell id="PHjYOECtbzAeJaCVC0Ml-64" value="+ 1" style="edgeLabel;resizable=0;html=1;align=center;verticalAlign=middle;" connectable="0" vertex="1" parent="PHjYOECtbzAeJaCVC0Ml-63">
          <mxGeometry relative="1" as="geometry" />
        </mxCell>
        <mxCell id="PHjYOECtbzAeJaCVC0Ml-65" value="" style="endArrow=classic;html=1;exitX=0.309;exitY=0.027;exitDx=0;exitDy=0;exitPerimeter=0;" edge="1" parent="1" source="PHjYOECtbzAeJaCVC0Ml-57">
          <mxGeometry width="50" height="50" relative="1" as="geometry">
            <mxPoint x="1680.3400000000001" y="172.4100000000001" as="sourcePoint" />
            <mxPoint x="1720" y="160" as="targetPoint" />
          </mxGeometry>
        </mxCell>
        <mxCell id="PHjYOECtbzAeJaCVC0Ml-66" value="" style="endArrow=classic;html=1;entryX=0.25;entryY=1;entryDx=0;entryDy=0;" edge="1" parent="1" target="PHjYOECtbzAeJaCVC0Ml-47">
          <mxGeometry width="50" height="50" relative="1" as="geometry">
            <mxPoint x="1945" y="250" as="sourcePoint" />
            <mxPoint x="1780" y="175" as="targetPoint" />
            <Array as="points">
              <mxPoint x="1745" y="230" />
            </Array>
          </mxGeometry>
        </mxCell>
        <mxCell id="PHjYOECtbzAeJaCVC0Ml-67" value="class txData" style="swimlane;html=1;fontStyle=0;childLayout=stackLayout;horizontal=1;startSize=40;fillColor=#e0e0e0;horizontalStack=0;resizeParent=1;resizeLast=0;collapsible=1;marginBottom=0;swimlaneFillColor=#ffffff;align=center;rounded=1;shadow=0;comic=0;labelBackgroundColor=none;strokeWidth=1;fontFamily=Verdana;fontSize=12" vertex="1" parent="1">
          <mxGeometry x="33.75" y="730" width="346.25" height="140" as="geometry" />
        </mxCell>
        <mxCell id="PHjYOECtbzAeJaCVC0Ml-68" value="def __init__(self, commitYN, sender, amount, receiver, uuid):&lt;br&gt;&amp;nbsp; &amp;nbsp;self.commitYN = commitYN&lt;br&gt;&amp;nbsp; &amp;nbsp;self.sender = sender&lt;br&gt;&amp;nbsp; &amp;nbsp;self.amount = amount&lt;br&gt;&amp;nbsp; &amp;nbsp;self.receiver = receiver&lt;br&gt;&amp;nbsp; &amp;nbsp;self.uuid = uuid" style="text;html=1;strokeColor=none;fillColor=none;spacingLeft=4;spacingRight=4;whiteSpace=wrap;overflow=hidden;rotatable=0;points=[[0,0.5],[1,0.5]];portConstraint=eastwest;" vertex="1" parent="PHjYOECtbzAeJaCVC0Ml-67">
          <mxGeometry y="40" width="346.25" height="100" as="geometry" />
        </mxCell>
        <mxCell id="PHjYOECtbzAeJaCVC0Ml-70" value="" style="edgeStyle=orthogonalEdgeStyle;rounded=0;orthogonalLoop=1;jettySize=auto;html=1;" edge="1" parent="1">
          <mxGeometry relative="1" as="geometry">
            <mxPoint x="1120" y="262.5" as="sourcePoint" />
            <mxPoint x="1210" y="310" as="targetPoint" />
          </mxGeometry>
        </mxCell>
        <mxCell id="PHjYOECtbzAeJaCVC0Ml-71" value="return importedNodes" style="rounded=1;whiteSpace=wrap;html=1;fillColor=#d5e8d4;strokeColor=#82b366;" vertex="1" parent="1">
          <mxGeometry x="1130" y="310" width="160" height="26" as="geometry" />
        </mxCell>
        <mxCell id="PHjYOECtbzAeJaCVC0Ml-72" value="" style="endArrow=classic;html=1;exitX=1;exitY=0.5;exitDx=0;exitDy=0;" edge="1" parent="1">
          <mxGeometry relative="1" as="geometry">
            <mxPoint x="470" y="620" as="sourcePoint" />
            <mxPoint x="600" y="620.5" as="targetPoint" />
          </mxGeometry>
        </mxCell>
        <mxCell id="PHjYOECtbzAeJaCVC0Ml-73" value="/block/validateBlock" style="edgeLabel;resizable=0;html=1;align=center;verticalAlign=middle;" connectable="0" vertex="1" parent="PHjYOECtbzAeJaCVC0Ml-72">
          <mxGeometry relative="1" as="geometry" />
        </mxCell>
        <mxCell id="PHjYOECtbzAeJaCVC0Ml-74" value="" style="endArrow=classic;html=1;exitX=1;exitY=0.5;exitDx=0;exitDy=0;" edge="1" parent="1" source="21ea969265ad0168-28">
          <mxGeometry relative="1" as="geometry">
            <mxPoint x="510" y="650" as="sourcePoint" />
            <mxPoint x="600" y="645" as="targetPoint" />
          </mxGeometry>
        </mxCell>
        <mxCell id="PHjYOECtbzAeJaCVC0Ml-75" value="/block/newtx" style="edgeLabel;resizable=0;html=1;align=center;verticalAlign=middle;" connectable="0" vertex="1" parent="PHjYOECtbzAeJaCVC0Ml-74">
          <mxGeometry relative="1" as="geometry" />
        </mxCell>
        <mxCell id="PHjYOECtbzAeJaCVC0Ml-76" value="" style="endArrow=classic;html=1;exitX=1;exitY=0.5;exitDx=0;exitDy=0;" edge="1" parent="1">
          <mxGeometry relative="1" as="geometry">
            <mxPoint x="470" y="670" as="sourcePoint" />
            <mxPoint x="600" y="670.5" as="targetPoint" />
          </mxGeometry>
        </mxCell>
        <mxCell id="PHjYOECtbzAeJaCVC0Ml-77" value="/node/" style="edgeLabel;resizable=0;html=1;align=center;verticalAlign=middle;" connectable="0" vertex="1" parent="PHjYOECtbzAeJaCVC0Ml-76">
          <mxGeometry relative="1" as="geometry" />
        </mxCell>
        <mxCell id="PHjYOECtbzAeJaCVC0Ml-78" value="read &#39;block&#39;&lt;br&gt;and compare 2 lists&lt;br&gt;&lt;br&gt;genesisBlock[]&lt;br&gt;bcToValidateForBlock[]" style="rounded=1;whiteSpace=wrap;html=1;shadow=0;strokeColor=#000000;strokeWidth=1;align=center;" vertex="1" parent="1">
          <mxGeometry x="600" y="540" width="140" height="90" as="geometry" />
        </mxCell>
        <mxCell id="PHjYOECtbzAeJaCVC0Ml-79" value="" style="endArrow=classic;html=1;" edge="1" parent="1" source="PHjYOECtbzAeJaCVC0Ml-78">
          <mxGeometry relative="1" as="geometry">
            <mxPoint x="650" y="490.03" as="sourcePoint" />
            <mxPoint x="890" y="490" as="targetPoint" />
            <Array as="points">
              <mxPoint x="670" y="490" />
            </Array>
          </mxGeometry>
        </mxCell>
        <mxCell id="PHjYOECtbzAeJaCVC0Ml-80" value="if failed to load block data from csv" style="edgeLabel;resizable=0;html=1;align=center;verticalAlign=middle;" connectable="0" vertex="1" parent="PHjYOECtbzAeJaCVC0Ml-79">
          <mxGeometry relative="1" as="geometry" />
        </mxCell>
        <mxCell id="PHjYOECtbzAeJaCVC0Ml-81" value="return false" style="rounded=1;whiteSpace=wrap;html=1;fillColor=#dae8fc;strokeColor=#6c8ebf;" vertex="1" parent="1">
          <mxGeometry x="890" y="480" width="210" height="20" as="geometry" />
        </mxCell>
        <mxCell id="PHjYOECtbzAeJaCVC0Ml-88" value="" style="edgeStyle=orthogonalEdgeStyle;rounded=0;orthogonalLoop=1;jettySize=auto;html=1;entryX=1.002;entryY=0.168;entryDx=0;entryDy=0;entryPerimeter=0;" edge="1" parent="1" source="PHjYOECtbzAeJaCVC0Ml-87" target="PHjYOECtbzAeJaCVC0Ml-78">
          <mxGeometry relative="1" as="geometry">
            <mxPoint x="740" y="563" as="targetPoint" />
          </mxGeometry>
        </mxCell>
        <mxCell id="PHjYOECtbzAeJaCVC0Ml-87" value="def isSameBlock" style="rounded=1;whiteSpace=wrap;html=1;" vertex="1" parent="1">
          <mxGeometry x="890" y="540" width="160" height="30" as="geometry" />
        </mxCell>
      </root>
    </mxGraphModel>
  </diagram>
</mxfile>
